<svg xmlns="http://www.w3.org/2000/svg" viewBox="0 0 200 240">
  <path d="M76 28Q70 17 82 14Q89 4 100 12Q112 4 119 15Q135 12 137 26Q149 29 143 40H67Q60 31 76 28Z" fill="#8E96B3" stroke="#090E25" stroke-width="3" stroke-linejoin="round"/>
  <path d="M84 44L80 54M104 44L100 56M124 44L120 54" fill="none" stroke="#8E96B3" stroke-width="3" stroke-linecap="round"/>
  <path d="M45 224V161Q45 136 69 126L83 120H117L131 126Q155 136 155 161V224Z" fill="#8E96B3" stroke="#090E25" stroke-width="3" stroke-linejoin="round"/>
  <path d="M47 162Q35 181 43 218L67 215L70 165" fill="#8E96B3" stroke="#090E25" stroke-width="3" stroke-linejoin="round"/>
  <path d="M153 162Q165 181 157 218L133 215L130 165" fill="#8E96B3" stroke="#090E25" stroke-width="3" stroke-linejoin="round"/>
  <path d="M59 183Q70 176 81 185V214H59Z" fill="#8E96B3" stroke="#090E25" stroke-width="3" stroke-linejoin="round"/>
  <path d="M141 183Q130 176 119 185V214H141Z" fill="#8E96B3" stroke="#090E25" stroke-width="3" stroke-linejoin="round"/>
  <circle cx="72" cy="197" r="9" fill="#D9A47E" stroke="#090E25" stroke-width="3"/>
  <circle cx="128" cy="197" r="9" fill="#D9A47E" stroke="#090E25" stroke-width="3"/>
  <rect x="88" y="111" width="24" height="25" rx="10" fill="#D9A47E" stroke="#090E25" stroke-width="3"/>
  <path d="M61 76Q61 42 100 38Q139 42 139 76V94Q139 121 100 125Q61 121 61 94Z" fill="#D9A47E" stroke="#090E25" stroke-width="3"/>
  <path d="M62 72Q64 43 100 40Q135 43 139 70Q123 58 115 55Q91 68 62 64Z" fill="#090E25" stroke="#090E25" stroke-width="3"/>
  <path d="M76 83Q84 88 91 85M109 85Q117 88 124 83" fill="none" stroke="#090E25" stroke-width="3" stroke-linecap="round"/>
  <circle cx="84" cy="92" r="3" fill="#090E25"/><circle cx="116" cy="92" r="3" fill="#090E25"/>
  <path d="M100 91L96 101L102 102" fill="none" stroke="#090E25" stroke-width="3" stroke-linecap="round" stroke-linejoin="round"/>
  <path d="M92 113Q100 107 108 113" fill="none" stroke="#090E25" stroke-width="3" stroke-linecap="round"/>
  <path d="M72 128Q74 113 89 113M128 128Q126 113 111 113" fill="none" stroke="#090E25" stroke-width="3" stroke-linecap="round"/>
  <path d="M74 127Q100 145 126 127" fill="none" stroke="#090E25" stroke-width="3"/>
  <path d="M86 145Q100 154 114 145" fill="none" stroke="#161F42" stroke-width="3" stroke-linecap="round"/>
</svg>
