<svg xmlns="http://www.w3.org/2000/svg" viewBox="0 0 200 240">
  <path d="M47 224V151Q47 130 69 121L84 115H116L131 121Q153 130 153 151V224Z" fill="#161F42" stroke="#090E25" stroke-width="3" stroke-linejoin="round"/>
  <rect x="88" y="104" width="24" height="25" rx="10" fill="#D9A47E" stroke="#090E25" stroke-width="3"/>
  <path d="M61 61Q61 27 100 23Q139 27 139 61V82Q139 110 100 114Q61 110 61 82Z" fill="#D9A47E" stroke="#090E25" stroke-width="3"/>
  <path d="M62 58Q65 29 100 25Q134 29 139 56Q124 45 115 41Q91 55 62 49Z" fill="#090E25" stroke="#090E25" stroke-width="3"/>
  <path d="M75 69Q84 62 92 68M109 72Q117 69 125 72" fill="none" stroke="#090E25" stroke-width="3" stroke-linecap="round"/>
  <circle cx="84" cy="77" r="3" fill="#090E25"/><circle cx="116" cy="79" r="3" fill="#090E25"/>
  <path d="M100 77L96 88L102 89" fill="none" stroke="#090E25" stroke-width="3" stroke-linecap="round" stroke-linejoin="round"/>
  <path d="M92 99Q100 103 108 98" fill="none" stroke="#090E25" stroke-width="3" stroke-linecap="round"/>
  <path d="M48 161Q35 176 43 205L69 197L76 159" fill="#161F42" stroke="#090E25" stroke-width="3" stroke-linejoin="round"/>
  <path d="M152 161Q165 176 157 205L131 197L124 159" fill="#161F42" stroke="#090E25" stroke-width="3" stroke-linejoin="round"/>
  <circle cx="68" cy="187" r="10" fill="#D9A47E" stroke="#090E25" stroke-width="3"/>
  <circle cx="132" cy="187" r="10" fill="#D9A47E" stroke="#090E25" stroke-width="3"/>
  <path d="M52 158L99 169V224L52 211Z" fill="#161F42" stroke="#090E25" stroke-width="3" stroke-linejoin="round"/>
  <path d="M148 158L101 169V224L148 211Z" fill="#161F42" stroke="#090E25" stroke-width="3" stroke-linejoin="round"/>
  <path d="M100 169V224" fill="none" stroke="#090E25" stroke-width="3"/>
  <path d="M116 187L126 176L136 187L126 181Z" fill="#C9A56A" stroke="#090E25" stroke-width="3" stroke-linejoin="round"/>
  <path d="M62 177L87 183M62 187L87 193" fill="none" stroke="#8E96B3" stroke-width="3" stroke-linecap="round"/>
</svg>
